<?xml version="1.0" encoding="UTF-8" standalone="no"?>
<svg
   xmlns:dc="http://purl.org/dc/elements/1.1/"
   xmlns:cc="http://creativecommons.org/ns#"
   xmlns:rdf="http://www.w3.org/1999/02/22-rdf-syntax-ns#"
   xmlns:svg="http://www.w3.org/2000/svg"
   xmlns="http://www.w3.org/2000/svg"
   xmlns:sodipodi="http://sodipodi.sourceforge.net/DTD/sodipodi-0.dtd"
   xmlns:inkscape="http://www.inkscape.org/namespaces/inkscape"
   id="Camada_1"
   data-name="Camada 1"
   viewBox="0 0 576.6941 111.43973"
   version="1.1"
   sodipodi:docname="cort.svg"
   width="576.69409"
   height="111.43973"
   inkscape:version="1.0.2-2 (e86c870879, 2021-01-15)">
  <metadata
     id="metadata15">
    <rdf:RDF>
      <cc:Work
         rdf:about="">
        <dc:format>image/svg+xml</dc:format>
        <dc:type
           rdf:resource="http://purl.org/dc/dcmitype/StillImage" />
      </cc:Work>
    </rdf:RDF>
  </metadata>
  <sodipodi:namedview
     pagecolor="#ffffff"
     bordercolor="#666666"
     borderopacity="1"
     objecttolerance="10"
     gridtolerance="10"
     guidetolerance="10"
     inkscape:pageopacity="0"
     inkscape:pageshadow="2"
     inkscape:window-width="1366"
     inkscape:window-height="705"
     id="namedview13"
     showgrid="false"
     inkscape:zoom="0.91066581"
     inkscape:cx="-44.851273"
     inkscape:cy="-4.2677675"
     inkscape:window-x="-8"
     inkscape:window-y="-8"
     inkscape:window-maximized="1"
     inkscape:current-layer="Camada_1" />
  <defs
     id="defs4">
    <style
       id="style2">.cls-1{fill:#862633;}</style>
  </defs>
  <path
     class="cls-1"
     d="m 339.50484,81.94438 c -3.44041,4.841143 -6.58102,9.520095 -10.01651,13.963135 -4.91486,6.389345 -10.81271,11.633505 -18.97139,13.619105 -7.80482,1.89714 -11.95788,-0.32929 -14.10077,-8.01615 -2.65894,-9.529935 -3.36668,-19.344923 -3.19957,-29.184491 0.19167,-11.127264 0.70282,-22.249611 1.07144,-33.376875 a 12.095492,12.095492 0 0 0 -0.11796,-1.307354 h -8.08496 c -1.96594,0 -3.93189,0 -5.89784,0 -3.44041,0 -3.44041,-0.02454 -3.11111,-4.030193 l 17.83114,-2.491837 c 0.33422,-10.021418 0.67334,-20.037927 1.01738,-30.29525463 4.99842,-0.982974 10.01651,-0.64876 14.64139,2.18711703 3.74022,2.295245 5.33264,5.981399 5.55381,10.1442886 0.18676,3.582941 -0.18677,7.190458 -0.28015,10.812709 -0.0393,1.626826 0,3.248736 0,5.239252 3.19466,0 6.35493,0 9.51027,0 1.14517,0 2.29033,-0.06388 3.44041,-0.06884 3.37651,0 3.37651,0 3.49447,4.069511 l -16.93663,2.565557 c -0.1966,4.025276 -0.54556,8.011242 -0.57013,12.002108 -0.0787,11.874329 -0.14254,23.748648 0.0393,35.61806 a 43.16238,43.16238 0 0 0 1.53344,10.149207 c 0.9289,3.56327 3.39125,4.33983 6.32543,2.09373 a 24.412154,24.412154 0 0 0 5.3228,-5.37195 c 3.83851,-5.593126 7.59839,-11.264878 10.96508,-17.15289 1.63175,-2.850628 2.15765,-6.310697 3.44041,-9.3874 a 27.095672,27.095672 0 0 1 10.95524,-12.886787 c 9.88866,-6.084612 20.80954,-2.742498 25.46394,7.893279 1.19425,2.73758 1.80866,5.725822 2.75228,8.817276 5.86841,-1.08127 11.72691,-2.265762 17.03,-5.824127 6.09451,-4.084253 12.33635,-8.124271 18.98129,-11.156748 12.02175,-5.480078 24.27943,-3.976132 36.28647,0.609442 8.49286,3.243819 15.9635,8.207834 23.05568,13.840268 7.62294,6.060036 15.20654,12.198709 23.12929,17.855719 7.43627,5.303148 15.58511,9.239958 24.83491,10.527658 20.54907,2.85553 38.82745,-10.011594 42.9215,-30.383727 2.59015,-12.867127 1.47447,-25.173957 -6.43356,-36.104629 -8.5764,-11.835002 -20.35248,-16.509038 -34.72845,-14.36124 -2.31489,0.348956 -4.65928,1.56784 -6.62032,2.91943 -2.86045,1.965949 -3.65665,6.546606 -0.49152,9.141656 a 13.835356,13.835356 0 0 1 1.53836,1.587499 c 2.192,2.457436 2.45743,5.273653 0.82083,7.893279 a 6.4974568,6.4974568 0 0 1 -7.75566,2.609801 c -4.04009,-1.425318 -6.13872,-4.526597 -6.7432,-8.610851 -0.98304,-6.625242 1.38101,-11.874328 6.88079,-15.693179 6.38935,-4.4233846 13.70752,-5.3768656 21.13396,-4.5659146 20.02317,2.1822076 33.29818,13.4618266 39.18617,32.2759446 8.25701,26.363357 -8.9057,51.940341 -34.40401,56.914191 -15.51131,3.022645 -29.61211,-1.24838 -43.1133,-8.57645 -10.07055,-5.465338 -18.75999,-12.832728 -27.76899,-19.777434 -4.72812,-3.641919 -9.3726,-7.446027 -14.38581,-10.66527 -14.33663,-9.20555 -28.88466,-8.723888 -43.2508,0 -3.59773,2.187116 -6.5319,5.504655 -10.20822,7.505005 -6.14359,3.351948 -12.66069,6.0158 -18.96154,9.082678 a 4.1923832,4.1923832 0 0 0 -1.966,2.324739 c -2.39843,8.104612 -6.41389,15.019832 -13.79107,19.605412 -10.24259,6.359845 -22.7067,1.53835 -26.04884,-10.090233 -0.40301,-1.440051 -0.76178,-2.845701 -1.19919,-4.487269 z m 36.56173,-6.222227 a 23.198182,23.198182 0 0 1 -15.32952,-3.995791 c -2.32472,5.494829 -3.51906,10.763565 -1.96591,16.322283 1.44498,5.25399 5.57836,6.49746 9.68223,2.94892 4.51682,-3.971216 6.47786,-9.230127 7.6132,-15.275412 z m 0,-7.957173 c -0.49152,-2.801475 -1.43514,-5.042651 -4.09413,-5.843777 -2.00038,-0.609441 -3.7549,0.167108 -5.22451,1.759524 2.33952,3.091454 5.47027,3.897487 9.31368,4.08917 z"
     id="path6"
     style="stroke-width:0.491487" />
  <path
     class="cls-1"
     d="m 43.944273,44.266993 c -3.14551,-1.120589 -3.7058,-3.184833 -3.4404,-6.074779 a 54.614024,54.614024 0 0 0 -0.15236,-9.269444 c -0.0836,-1.164824 -0.70283,-2.359132 -1.31719,-3.396175 -1.41548,-2.393542 -4.423377,-3.111113 -6.246795,-1.110754 -2.054419,2.221517 -4.054769,4.796908 -5.126214,7.583641 -3.022642,7.863785 -4.015441,16.179749 -4.733013,24.510446 -0.776549,8.974557 -1.656311,17.97859 -0.157273,26.948231 a 34.305785,34.305785 0 0 0 2.604875,8.645256 c 1.936464,4.19238 5.661927,5.19993 9.603659,2.78673 6.929961,-4.23662 11.830081,-10.503081 16.376341,-17.054595 0.42267,-0.609442 0.41285,-1.553098 0.49149,-2.349306 0.98297,-9.038452 4.18255,-16.897321 11.41724,-22.829568 11.1715,-9.156407 25.19853,-4.880471 29.2238,9.004042 0.52098,1.798841 0.83553,3.65666 1.39583,6.158322 3.80902,-1.041951 7.618037,-2.024926 11.373007,-3.179915 0.44725,-0.137614 0.80111,-1.1894 0.86501,-1.847994 0.5259,-5.337547 0.98297,-10.68492 1.47446,-16.391083 9.43655,-4.605233 17.99825,3.966299 18.54381,19.94454 1.38599,-1.867653 2.45742,-3.558365 3.76969,-5.018084 1.5826,-1.744782 3.19959,-3.558365 5.13113,-4.855895 3.21432,-2.167457 6.38933,-0.845351 6.93979,2.948923 a 51.257169,51.257169 0 0 1 0.30964,9.751098 c -0.22608,4.733023 -0.82078,9.446386 -1.15008,14.1794 -0.0737,1.06161 0.30472,2.157632 0.49149,3.317538 3.09145,-0.403017 4.80674,-2.329647 6.06986,-4.334914 3.38635,-5.406359 6.47289,-10.979816 9.67246,-16.494304 0.5259,-0.909246 1.02229,-1.83816 1.62683,-2.924347 l 2.59996,1.066528 c -1.02721,2.03476 -1.90205,3.931897 -2.92434,5.76514 -2.88995,5.131122 -5.67668,10.32123 -8.84677,15.285245 a 16.341939,16.341939 0 0 1 -5.11638,4.806739 c -2.76707,1.72021 -5.7848,0.58487 -6.23697,-2.585221 -0.61927,-4.32508 -0.49149,-8.768124 -0.49149,-13.162015 0,-3.18975 0.39319,-6.389333 0.49149,-9.564341 a 17.767251,17.767251 0 0 0 -0.3981,-3.017725 l -0.8601,-0.412851 c -0.924,1.194317 -2.18712,2.255928 -2.71792,3.6026 q -3.71073,9.470953 -7.04301,19.07952 c -1.17957,3.396175 -1.81359,6.984033 -3.04231,10.355633 -2.16745,5.937165 -6.76777,8.655085 -12.59189,7.819565 -2.71793,-0.38828 -4.91487,-1.70055 -5.93224,-4.197305 -1.01739,-2.49676 -1.91681,-5.14096 -1.96595,-7.74584 -0.11797,-4.973842 0.39318,-9.96735 0.65859,-14.951033 0.0688,-1.292603 0.20151,-2.585216 0.32929,-4.16289 -3.84343,1.385991 -7.441107,2.609792 -10.960157,4.03511 -0.52589,0.211334 -0.79621,1.312272 -0.98297,2.054411 -2.19203,8.025984 -6.29103,14.720042 -13.41267,19.290862 -10.18853,6.541695 -22.67229,1.96595 -26.27489,-9.569249 -0.21626,-0.692995 -0.42269,-1.395825 -0.70775,-2.339481 -2.83587,3.60752 -5.43092,7.12656 -8.25697,10.45393 -4.1973,4.93944 -8.664915,9.603665 -14.292441,12.999835 C 17.856156,115.16889 7.2842737,111.12887 3.0771397,97.499935 -0.12243535,87.178714 -0.27970835,76.523279 0.20686165,65.867843 0.79172765,53.15308 2.6642977,40.639816 7.0876727,28.603307 9.8940657,20.936112 13.757152,14.001231 20.559336,9.1256784 c 3.573107,-2.565557 7.436193,-4.52168 11.982449,-4.423385 6.831668,0.117964 11.854658,5.121298 13.270148,13.1472816 1.41548,8.025976 0.18676,15.820959 -1.24838,23.655261 -0.15236,0.879761 -0.38336,1.734947 -0.61928,2.762157 z m 29.27297,27.302096 c -2.23136,5.986307 -3.69107,11.594174 -1.61208,17.496936 1.38107,3.93189 4.83623,5.10655 8.20783,2.72283 5.40635,-3.82867 7.53449,-9.500436 8.69932,-15.958572 -5.52923,0.127789 -10.52765,-0.761807 -15.29507,-4.25136 z m 15.47201,-3.868003 c -0.68317,-2.948923 -1.71038,-5.150781 -4.42339,-5.843777 -1.91189,-0.491487 -3.61734,0.250661 -5.07214,1.847994 2.48201,2.963665 5.56363,3.990866 9.49553,4.005617 z"
     id="path8"
     style="stroke-width:0.491487" />
  <path
     class="cls-1"
     d="m 214.54429,62.034241 c 1.50886,1.587508 2.63437,1.022293 4.01053,0.103213 5.95191,-3.961382 12.54767,-5.40635 19.65948,-4.585575 0.64384,0.07371 1.29261,0.117964 2.19695,0.201518 v -8.478154 c 10.3802,-2.550815 20.88819,1.474461 20.7604,13.899255 -0.0688,6.389324 -0.45708,12.778657 -0.49148,19.167981 a 34.86608,34.86608 0 0 0 0.94856,7.770406 c 0.87485,3.83852 3.19467,4.63964 5.89785,1.7497 3.26839,-3.51905 6.46797,-7.264178 8.84676,-11.407409 3.10129,-5.406359 5.54397,-11.269795 7.8982,-17.084087 1.07635,-2.668778 2.8113,-1.361424 4.68387,-1.695629 -0.49149,1.474461 -0.78147,2.727746 -1.26312,3.931897 -4.38899,10.812709 -9.09252,21.428826 -17.37898,29.946288 -4.62981,4.762525 -9.82974,8.684585 -16.54345,10.021425 -8.89592,1.75952 -13.99755,-1.16973 -15.61946,-11.092865 -0.63401,-3.93189 -0.49148,-7.947343 -0.68317,-12.021762 -1.80375,1.317179 -3.56819,2.727746 -5.45058,3.931888 a 18.917331,18.917331 0 0 1 -11.65315,3.189754 c -5.20485,-0.32438 -9.37758,-2.319817 -10.8717,-7.721259 -3.66158,5.057403 -7.16096,10.173769 -10.95524,15.068989 -4.06951,5.249075 -8.97946,9.628225 -15.4032,11.771115 -10.81271,3.60751 -15.1722,0.693 -17.37897,-9.117095 a 118.90542,118.90542 0 0 1 -2.59997,-30.963669 c 0.41776,-10.291738 0.60944,-20.5933 0.89942,-30.963674 -4.65438,0 -9.30384,0 -13.9484,0 -3.44041,0 -3.44041,0 -3.25856,-4.03511 4.67896,-0.638926 9.42672,-1.361415 14.18923,-1.921713 3.64683,-0.427593 3.65175,-0.339123 3.79428,-4.069512 0.33422,-8.84676 0.67334,-17.6443756 1.01738,-26.6287586 10.53748,-3.8581693 21.03564,3.887662 20.31807,15.4228586 -0.2605,4.14324 -0.46691,8.296305 -0.71266,12.744256 h 10.19835 c 1.47447,0 2.94893,0.0295 4.42339,-0.059 1.34175,-0.07867 1.93645,0.43251 1.96595,1.803758 0.0295,1.371249 0.0393,2.403367 -1.68089,2.624543 -3.73039,0.491488 -7.45094,1.051777 -11.17642,1.597325 -1.28769,0.186766 -2.57047,0.393191 -4.07933,0.624193 -0.20643,4.73793 -0.58979,9.382482 -0.57996,14.031951 q 0.0492,18.907496 0.41777,37.819918 a 20.509748,20.509748 0 0 0 1.30735,6.212384 c 1.13533,3.26839 3.32245,4.0302 6.06003,1.89714 2.23135,-1.73495 4.44796,-3.75987 5.947,-6.1141 4.91486,-7.721246 9.51027,-15.644018 14.19414,-23.502896 0.73723,-1.194307 1.28769,-2.472178 2.09373,-4.069511 z m 25.34106,2.550824 c -4.66912,0.03934 -8.51746,0.683161 -12.02177,2.536072 a 8.5617017,8.5617017 0 0 0 -4.42338,9.308754 c 0.49149,2.516413 2.13797,3.750048 4.59049,3.130772 a 17.511678,17.511678 0 0 0 10.10006,-6.944706 c 1.37124,-1.970865 1.17465,-5.047568 1.7546,-8.030892 z"
     id="path10"
     style="stroke-width:0.491487" />
</svg>
