<?xml version="1.0" encoding="UTF-8" standalone="no"?>
<svg
   xmlns:dc="http://purl.org/dc/elements/1.1/"
   xmlns:cc="http://creativecommons.org/ns#"
   xmlns:rdf="http://www.w3.org/1999/02/22-rdf-syntax-ns#"
   xmlns:svg="http://www.w3.org/2000/svg"
   xmlns="http://www.w3.org/2000/svg"
   xmlns:sodipodi="http://sodipodi.sourceforge.net/DTD/sodipodi-0.dtd"
   xmlns:inkscape="http://www.inkscape.org/namespaces/inkscape"
   id="Camada_1"
   data-name="Camada 1"
   viewBox="0 0 737.97517 111.49565"
   version="1.1"
   sodipodi:docname="svg1.svg"
   inkscape:version="1.0.2-2 (e86c870879, 2021-01-15)"
   width="737.97516"
   height="111.49564">
  <metadata
     id="metadata23">
    <rdf:RDF>
      <cc:Work
         rdf:about="">
        <dc:format>image/svg+xml</dc:format>
        <dc:type
           rdf:resource="http://purl.org/dc/dcmitype/StillImage" />
        <dc:title></dc:title>
      </cc:Work>
    </rdf:RDF>
  </metadata>
  <sodipodi:namedview
     pagecolor="#ffffff"
     bordercolor="#666666"
     borderopacity="1"
     objecttolerance="10"
     gridtolerance="10"
     guidetolerance="10"
     inkscape:pageopacity="0"
     inkscape:pageshadow="2"
     inkscape:window-width="1366"
     inkscape:window-height="705"
     id="namedview21"
     showgrid="false"
     inkscape:zoom="0.91066581"
     inkscape:cx="628.74077"
     inkscape:cy="90.471875"
     inkscape:window-x="-8"
     inkscape:window-y="-8"
     inkscape:window-maximized="1"
     inkscape:current-layer="Camada_1"
     fit-margin-top="0"
     fit-margin-left="0"
     fit-margin-right="0"
     fit-margin-bottom="0" />
  <defs
     id="defs4">
    <style
       id="style2">.cls-1{fill:#f8efe6;}.cls-2{fill:#862633;}</style>
  </defs>
  <path
     class="cls-1"
     d="m 734.58843,60.467939 c 1.11804,9.29707 2.46327,21.07535 2.02682,23.08423 -0.40058,1.82952 -4.1493,1.6382 -7.4257,1.10011 a 5.2434269,5.2434269 0 0 0 -1.14195,2.57089 c 0,2.45729 5.7875,1.6382 5.7875,2.45729 0,0.8191 -1.65016,6.57671 -0.82508,8.20893 0.24513,0.49624 0.34677,2.313801 0.38862,4.711311 l -72.94163,0.46037 -51.41787,0.32883 c 0,0 -26.4503,0.83106 -29.75659,-0.82507 -2.48121,-1.65016 -4.96242,-0.82508 -4.96242,0.82507 0,1.65016 -10.76188,1.65614 -29.7566,2.48121 -15.71832,0.68159 -19.56869,-0.32883 -21.82868,-3.03126 l -5.80544,0.0359 a 12.125051,12.125051 0 0 1 -2.12248,2.98942 l -1.69798,-2.98942 h -2.55296 l -0.71148,2.12847 c 0,0 -36.36918,-1.65614 -38.01933,-1.65614 a 1.6262396,1.6262396 0 0 1 -0.71148,-0.22121 l -10.66622,0.0658 c -0.0538,0.10164 -0.11957,0.15545 -0.1973,0.15545 a 6.2717842,6.2717842 0 0 1 -0.91476,-0.14947 l -23.06032,0.14947 c 0,0 -2.85787,0.0897 -6.80987,0.14947 v 0 c -4.07158,0.38265 -17.30271,0.56201 -29.69681,0.78921 -3.80851,0.76529 -13.48822,0.91476 -27.94502,1.54253 -9.67971,0.41852 -14.85737,0.1973 -17.93646,-0.66365 -2.92962,0.25111 -6.30766,0.22122 -8.50787,0.66365 -2.52306,0.89683 -7.4795,0.89683 -7.4795,0.89683 l -2.58883,-1.72788 v 0 l -4.21507,-0.19133 -1.45883,1.09413 c 0,0 -20.66281,0 -51.25047,0.82508 -36.36917,4.13734 -93.40115,5.7875 -100.01373,4.13734 -1.95507,-1.11804 -3.1329,-3.02528 -3.81449,-5.22549 a 17.141283,17.141283 0 0 0 -1.97899,0.26307 c -2.48121,0.82508 -7.44363,0.82508 -7.44363,0.82508 l -4.95645,-3.30629 -3.30628,2.48121 c 0,0 -20.66879,0 -51.25047,0.82508 -36.369167,4.13734 -93.407128,5.7875 -100.0197062,4.13734 -5.787499,-3.30629 -4.783057,-13.542031 -4.322688,-17.870701 -3.4976107,-7.13273 1.0164,-11.8859 3.497611,-14.34917 0,-1.65613 -4.131366,-31.41273 -3.407929,-34.71902 0.233175,-1.05825 1.596346,-1.43492 3.348141,-1.46481 L 4.1198768,24.911885 132.13243,24.038977 c 0,0 26.25899,-0.825077 29.54136,0.825077 2.46327,1.656134 4.92655,0.831057 4.92655,-0.825077 0,-1.656134 10.66622,-1.650155 29.53538,-2.481211 15.61668,-0.681586 19.43117,0.334814 21.67921,3.04322 l 5.75163,-0.03587 a 12.13103,12.13103 0 0 1 2.11052,-2.989411 l 1.69201,2.989411 h 2.52904 l 0.7055,-2.134439 c 0,0 36.1061,1.650155 37.7443,1.650155 a 1.6262396,1.6262396 0 0 1 0.71746,0.233174 l 10.57654,-0.07175 q 0.0777,-0.161428 0.1973,-0.161428 a 6.2777631,6.2777631 0 0 1 0.94465,0.155449 l 24.13651,-0.197301 c 0,0 2.15835,-0.06577 5.31517,-0.125555 v 0 c 3.96396,-0.40656 18.1517,-0.597882 31.01813,-0.831056 3.83242,-0.741374 13.39854,-0.896824 27.64607,-1.5246 9.30903,-0.40656 14.4269,-0.209259 17.51795,0.597882 2.6546,-0.179365 5.52443,-0.20328 7.47353,-0.597882 2.46327,-0.825078 7.38982,-0.825078 7.38982,-0.825078 l 2.48719,1.674071 v 0 l 4.32269,0.197301 1.38111,-1.046294 c 0,0 20.51931,0 50.87977,-0.825078 8.05945,-0.926717 17.14128,-1.715921 26.46825,-2.391528 32.42315,-2.319783 67.71015,-3.025284 72.81009,-1.745816 a 8.5915672,8.5915672 0 0 1 3.71285,4.956443 q 0.0658,0.179365 0.10762,0.358729 a 25.78068,25.78068 0 0 0 3.19269,-0.358729 c 2.46327,-0.825077 7.38982,-0.825077 7.38982,-0.825077 l 4.92057,3.306288 3.28238,-2.481211 c 0,0 20.51333,0 50.87379,-0.825077 8.05945,-0.926718 17.14726,-1.715922 26.46825,-2.391529 32.42913,-2.319783 67.71613,-3.025284 72.81607,-1.745816 a 8.5915672,8.5915672 0 0 1 3.71285,4.956443 c 1.43492,4.358561 0.88486,9.978652 0.59788,12.914252 2.29587,4.71132 1.11206,8.37036 -0.65767,11.04887 a 13.04579,13.04579 0 0 1 -0.83106,1.14195 28.226019,28.226019 0 0 1 -1.97899,2.17629 c -0.006,0.66365 0.6218,5.63205 1.35122,11.64077 z"
     id="path6"
     style="stroke-width:0.597882" />
  <path
     class="cls-2"
     d="m 514.53191,71.618439 c -1.40503,2.15836 -2.39153,3.94005 -3.62915,5.53041 -2.98941,3.88624 -5.84131,7.96977 -9.29707,11.41357 a 29.421783,29.421783 0 0 1 -8.88453,5.97883 c -8.90246,3.88623 -14.25351,1.44089 -15.70038,-8.07739 -1.50667,-9.88299 -1.79365,-19.97525 -2.20619,-29.98977 -0.32883,-7.62898 -0.0658,-15.28187 -0.0658,-23.12011 -3.34216,0 -7.34199,-0.0957 -11.35976,0.0359 -2.35565,0.0717 -3.22856,-0.79519 -2.57089,-3.51555 l 15.19816,-2.26 c 0.35873,-8.537754 0.72344,-17.105406 1.09413,-25.7687189 8.03554,-3.455759 17.18313,2.295867 17.51795,11.3597619 0.12555,3.372055 -0.25709,6.768026 -0.50222,10.163997 -0.13154,1.829519 0.55005,2.564915 2.39152,2.523063 3.79656,-0.07773 7.59909,0 11.56903,0 0.11957,1.273489 0.20328,2.212167 0.32883,3.587297 -3.90417,0.59788 -7.64093,1.27946 -11.40161,1.68602 -2.39153,0.26307 -3.48566,1.12402 -3.47968,3.66502 0.0299,13.55399 -0.11359,27.11396 0,40.65599 a 23.138041,23.138041 0 0 0 1.36317,6.70226 c 0.75334,2.34968 2.52905,2.86984 4.69338,1.68005 a 8.1790285,8.1790285 0 0 0 2.11052,-1.53656 c 5.9011,-6.44517 10.91733,-13.45235 13.67357,-21.75693 1.84746,-5.51845 4.31073,-10.49283 8.89051,-14.21764 9.76341,-7.94585 21.7091,-4.37052 25.46978,7.64093 0.48428,1.54852 0.76529,3.15682 1.2974,5.38094 l 13.00394,-3.58729 c -0.3109,-5.45866 -0.59788,-10.24172 -0.90878,-15.92758 3.58729,-0.29296 6.99522,-0.92672 10.35532,-0.7354 2.91767,0.16741 5.082,3.24053 5.0521,7.12078 0,3.62317 1.79365,4.53195 4.84285,4.62163 a 36.470814,36.470814 0 0 1 5.54237,0.47831 c 6.61855,1.19576 10.42706,5.38094 10.11019,12.05928 -0.37069,7.7366 -1.56048,15.43134 -2.24804,23.15598 a 39.669484,39.669484 0 0 0 0,8.16707 c 0.32883,2.75624 2.15835,3.49163 4.08353,1.55449 5.13581,-5.17766 8.89649,-10.72003 8.72311,-18.85122 -0.20328,-9.66178 1.19576,-19.35943 2.01486,-29.03316 a 2.2659735,2.2659735 0 0 1 1.68603,-1.43492 c 2.91766,0.18534 5.97882,0.17339 8.68125,1.08217 3.58729,1.19576 5.01623,4.40639 4.78305,8.12522 -0.23915,3.92808 -0.84301,7.83225 -1.0164,11.75436 a 48.9247,48.9247 0 0 0 0.31688,9.12368 c 0.43048,3.03724 2.39153,4.04766 4.9684,2.4274 4.49608,-2.85787 8.71115,-5.8413 8.80681,-12.2805 0.12555,-7.86813 8.32252,-15.2998 17.51197,-16.40588 2.98941,-0.36471 6.07448,-0.0598 9.36283,-0.0598 v -7.30612 c 10.97712,-3.13888 18.64197,3.18073 18.01419,14.34917 -0.34677,6.20602 -0.25709,12.45389 0,18.66588 0.0717,1.70995 1.53058,3.3601 2.34968,5.03417 1.61428,-0.95661 3.58729,-1.60232 4.78306,-2.92962 5.81141,-6.38538 9.85907,-13.85891 12.65716,-22.00207 0.90878,-2.63068 0.86095,-2.64862 4.32867,-1.97899 -5.12983,12.42997 -9.90093,24.97354 -21.28461,33.17649 a 30.491992,30.491992 0 0 1 -10.36727,4.53194 c -6.08644,1.50069 -10.32543,-1.14793 -11.81416,-7.30014 -0.96856,-3.96994 -1.02237,-8.16109 -1.51264,-12.55552 -6.45712,5.15972 -13.51811,8.85463 -21.65529,3.43184 -3.03724,3.17475 -5.69782,6.5767 -8.96823,9.20141 a 27.950993,27.950993 0 0 1 -9.20739,4.72924 c -4.63956,1.37513 -9.12966,0.63376 -12.40008,-4.05962 -0.7892,1.36915 -1.31534,2.39153 -1.97301,3.37804 -2.87581,4.23898 -5.31517,8.9204 -8.85463,12.513671 a 24.471318,24.471318 0 0 1 -10.51077,6.09242 c -6.30168,1.73386 -10.164,-1.33925 -11.66468,-7.724641 -1.88931,-8.08934 -0.5381,-16.09498 0.46635,-24.11258 0.69354,-5.51248 1.47079,-11.01299 2.21216,-16.54938 -4.11941,-0.69355 -7.92194,-1.48873 -11.7723,-1.87735 -1.11804,-0.10762 -2.36164,0.95063 -3.53946,1.4947 -4.35259,2.02084 -8.74702,3.95798 -13.02188,6.14025 a 5.978822,5.978822 0 0 0 -2.8519,2.98941 c -1.97301,5.82338 -4.78305,10.98908 -9.75743,14.82748 -9.70961,7.52734 -21.30853,3.82645 -24.83005,-7.94585 z m 18.36096,-7.904 c -2.02084,4.18518 -2.82201,8.92638 -1.27947,13.84695 1.10608,3.52153 4.28682,4.69338 7.24633,2.5709 4.50803,-3.24053 6.4093,-7.97575 7.17459,-12.92622 z m 132.67604,-7.51538 c -3.20465,0.8191 -6.212,1.29741 -8.96824,2.39153 -3.44978,1.33926 -4.91459,4.65152 -4.18517,8.26871 0.3946,2.05074 1.55449,2.98941 3.68893,2.67851 5.82935,-0.91476 10.02649,-6.37342 9.46448,-13.33875 z m -120.07269,3.50957 c -0.75931,-5.69782 -3.25247,-6.69628 -7.57516,-3.29433 z"
     id="path8"
     style="stroke-width:0.597882" />
  <path
     class="cls-2"
     d="m 264.04916,72.282089 c -1.01042,0.77127 -1.92518,1.49471 -2.86386,2.19423 -3.33618,2.47523 -6.98924,3.99385 -11.24616,3.8384 -7.3958,-0.26904 -11.43749,-5.32115 -9.8531,-12.52563 a 56.48791,56.48791 0 0 1 1.79365,-5.57226 c -6.75607,-3.8683 -15.54494,-3.94004 -20.24429,0.13153 1.95507,2.91169 4.07157,5.79348 5.90707,8.84268 3.37804,5.60814 7.0311,11.10865 9.7694,17.02171 3.69491,7.97575 0.77724,14.157851 -7.35395,17.308691 -14.16383,5.48258 -27.10798,-3.43185 -26.9047,-18.964831 0.0598,-4.44226 2.01486,-8.84267 2.92962,-13.2969 a 6.3076572,6.3076572 0 0 0 -0.3109,-3.79655 c -0.99846,-2.04476 -2.43338,-3.87427 -3.70089,-5.7875 a 6.0685043,6.0685043 0 0 0 -0.98053,-1.2974 c -4.39443,-3.82047 -16.06509,-4.01777 -21.0873,-0.13751 1.96703,2.91766 4.07755,5.78749 5.9011,8.82474 3.37205,5.60813 7.01913,11.10865 9.74548,17.02768 3.82644,8.29861 0.80714,14.528541 -7.77247,17.637531 -13.36267,4.8548 -25.60132,-3.25248 -26.3965,-17.422291 a 32.243787,32.243787 0 0 1 2.81004,-14.98293 c 0.48429,-1.09412 0.23318,-2.86983 -0.34079,-3.99385 -1.13,-2.20619 -2.72036,-4.18518 -4.14332,-6.27179 -3.76068,1.46482 -7.44961,2.78613 -11.01299,4.38248 -0.78921,0.35275 -1.35719,1.59635 -1.66211,2.54698 -1.60831,4.96242 -3.85634,9.53622 -7.73062,13.15341 -4.61565,4.27485 -9.73352,7.17458 -16.32816,5.04612 -6.83978,-2.17031 -10.28358,-7.38384 -11.28204,-14.02631 -1.53656,-10.23575 1.56645,-19.13223 9.64982,-25.78666 9.87103,-8.11924 21.82868,-4.25095 25.50565,8.02955 0.43646,1.44688 0.7055,2.94756 1.15391,4.84883 l 9.8531,-2.23608 c -1.88333,-5.97882 -2.39153,-11.59891 2.00291,-16.32218 2.79809,-3.02529 6.42723,-4.64555 10.69013,-5.87121 -0.81312,7.5094 2.11053,13.48823 5.48258,19.29366 0.46635,0.80714 2.00889,1.8355 2.60677,1.60233 6.85771,-2.63666 13.53007,-1.79365 20.87207,1.0702 -1.59635,-5.14776 -2.24804,-9.81124 0.59788,-14.18774 2.84592,-4.3765 7.10284,-6.20004 12.13103,-7.77247 -1.01042,7.46157 2.17031,13.42246 5.4766,19.29366 0.46635,0.82508 2.17031,1.79365 2.87581,1.51264 7.38385,-2.72634 14.39103,-1.39904 21.36831,1.46481 0.8191,0.33482 2.28989,0.35873 2.84592,-0.14349 5.91306,-5.38094 12.84849,-7.17458 20.63889,-6.25982 a 7.5153792,7.5153792 0 0 0 1.53656,-0.19133 v -7.10882 c 10.92331,-2.81004 18.03213,2.77418 17.8707,13.66161 q -0.14349,9.48839 -0.0777,18.98874 a 11.359762,11.359762 0 0 0 0.74735,3.50359 c 0.77127,2.18825 2.28391,2.53502 4.10147,1.23164 a 15.168271,15.168271 0 0 0 2.61872,-2.45132 61.826998,61.826998 0 0 0 12.3104,-21.82868 c 0.65767,-2.08661 1.60232,-2.9356 3.84438,-2.24206 0.0299,0.22122 0.18534,0.54408 0.10164,0.78323 -3.952,11.21627 -8.8367,21.90042 -17.67938,30.24088 -3.79655,3.58729 -8.13119,6.22395 -13.41647,7.09088 -6.41528,1.05228 -10.80373,-1.57841 -12.11907,-7.98172 -0.78323,-3.82047 -0.8191,-7.79041 -1.23164,-12.1131 z m -134.22455,-8.56167 c -1.96704,4.28681 -2.66058,9.03998 -1.14196,13.92468 1.02836,3.31226 3.78459,4.32866 6.7202,2.81602 3.91015,-2.02682 7.65887,-9.15955 7.24035,-13.35669 z m 81.5033,10.164 -1.33926,0.4783 c -2.4274,6.6903 -2.79211,13.32082 1.32132,19.57467 2.0328,3.09105 5.64401,4.68141 7.3958,3.45575 2.8818,-2.01486 2.44534,-5.24342 1.29143,-7.68876 -2.56492,-5.45269 -5.73967,-10.58849 -8.66929,-15.86181 z m -41.85176,0.28698 -1.19576,0.22122 c -0.47233,1.73983 -1.19577,3.45576 -1.37513,5.22549 -0.59788,6.34951 -0.49026,12.62727 5.44671,16.78255 1.23761,0.86693 3.47369,1.35121 4.7412,0.81312 1.03434,-0.43645 1.79365,-2.67253 1.79365,-4.10745 a 12.681081,12.681081 0 0 0 -1.36915,-5.97882 c -2.48121,-4.45422 -5.32713,-8.67527 -8.05347,-12.98003 z m 96.30687,-18.08594 c -3.5873,1.05228 -7.05501,1.70995 -10.19987,3.13889 -2.67254,1.19576 -3.5873,3.99385 -3.39597,6.92347 0.19132,2.92962 1.75179,4.02973 4.6276,3.24052 5.99676,-1.66211 9.11173,-5.94295 8.95628,-13.32679 z m -130.38017,0.59789 7.65289,3.21062 c -0.94466,-5.63803 -3.40195,-6.76204 -7.66485,-3.22856 z"
     id="path10"
     style="stroke-width:0.597882" />
  <path
     class="cls-2"
     d="m 433.97326,35.273179 c -0.9028,7.27623 2.33772,13.34474 5.79946,19.29366 0.38862,0.66963 2.06269,1.19577 2.82798,0.94466 8.65733,-3.09105 16.5434,-0.77725 24.26804,3.12692 1.06423,0.53809 2.21216,0.91476 3.31824,1.36317 l -1.33327,1.71592 c -8.29263,-2.66057 -16.48362,-7.42569 -25.67307,-1.66809 2.45132,3.62317 4.83687,6.86369 6.90554,10.29553 3.15682,5.22549 6.51094,10.39718 9.02205,15.93356 3.65306,7.99369 0.66364,13.870871 -7.4257,17.302721 -12.32235,5.27332 -29.09893,-2.39153 -26.82698,-22.671701 0.37069,-3.29433 1.93714,-6.44517 2.87582,-9.67971 a 26.617715,26.617715 0 0 0 0.52016,-3.25846 l -1.07021,-0.29894 c -1.14196,1.79365 -2.12249,3.76068 -3.46174,5.42279 -3.2764,4.0656 -6.43321,8.31056 -10.21183,11.87394 -2.28391,2.15238 -5.48856,3.62915 -8.53776,4.59174 -7.64093,2.39153 -13.15341,-0.98651 -15.01282,-8.72908 -0.16741,-0.71746 -0.29296,-1.4409 -0.68158,-3.34814 -1.59037,1.90126 -2.55894,3.3302 -3.79058,4.47814 -4.6575,4.34062 -9.12966,3.58729 -11.04288,-2.50513 -1.79365,-5.6739 -2.44534,-11.70653 -3.62317,-17.57774 -0.63973,-3.20465 -1.02836,-6.51093 -2.12248,-9.56611 -0.65169,-1.82952 -2.43338,-3.26444 -3.71285,-4.87274 -1.11804,1.69798 -2.83994,3.26443 -3.2465,5.12385 -1.19576,5.54237 -1.82952,11.19833 -2.77417,16.80049 -1.02238,6.03263 -1.76375,12.2805 -5.94893,17.09943 a 16.860278,16.860278 0 0 1 -6.83977,4.62761 c -3.73079,1.30936 -6.86967,-0.12556 -8.31654,-3.83243 a 47.968089,47.968089 0 0 1 -3.05518,-11.95764 c -1.59635,-14.52256 -0.36471,-29.03316 0.76529,-43.53181 0.80714,-10.3314 1.40502,-20.674762 2.09258,-31.05997486 10.00257,-2.79808904 17.69134,2.89374996 17.24293,13.28494186 -0.59788,13.536053 -1.59635,27.048193 -2.48121,41.457153 1.50068,-4.00581 2.45729,-7.26427 3.91015,-10.28358 1.85941,-3.86231 3.99983,-7.93389 9.17749,-7.65289 5.07004,0.27503 6.5767,4.62761 7.38982,8.46004 1.4409,6.6903 2.03878,13.56594 3.07312,20.32799 a 73.228612,73.228612 0 0 0 1.84147,9.61993 c 0.98651,3.35411 2.98941,3.95798 5.66793,1.83549 3.47369,-2.76221 6.12231,-5.92501 6.32559,-10.88743 0.23915,-5.97882 1.16587,-11.95765 1.96703,-17.90059 0.10164,-0.76529 1.19577,-2.02085 1.79365,-1.99095 2.91169,0.13751 5.93099,0.24513 8.67527,1.1001 3.3601,1.04032 4.9684,4.30475 4.6874,8.50786 -0.3109,4.57978 -0.94466,9.12967 -1.25556,13.70346 a 25.451845,25.451845 0 0 0 0.35275,5.87121 c 0.69355,4.1493 2.63666,5.07602 6.12232,2.85787 5.63803,-3.58729 8.83072,-9.28511 12.10711,-14.82747 0.37069,-0.63376 -0.38264,-1.97301 -0.69354,-2.98941 -1.19577,-3.81449 -3.14486,-7.55724 -3.50359,-11.44347 -0.65169,-7.33601 6.14623,-14.07415 13.91272,-14.48669 z m -0.83106,38.65309 -1.36915,0.52613 c -2.48121,6.70824 -2.82798,13.38061 1.411,19.58663 1.57841,2.3138 4.08952,4.73522 7.12078,3.30628 3.21063,-1.51264 2.60079,-5.11189 1.47079,-7.55125 -2.53502,-5.4467 -5.71575,-10.57056 -8.63342,-15.86779 z"
     id="path12"
     style="stroke-width:0.597882" />
  <path
     class="cls-2"
     d="m 45.541155,3.8245801 c 3.473696,0.173386 6.774005,-0.06577 9.894951,0.597882 6.457127,1.315341 10.367277,6.3435299 10.163997,13.3985399 -0.263068,9.500348 -1.106082,18.982757 -1.506663,28.477127 -0.221217,5.21951 -0.04185,10.45696 -0.04185,15.87975 0.5082,-1.99692 0.854972,-3.952 1.506663,-5.79945 3.288352,-9.35686 6.367446,-18.79742 10.104209,-27.96893 2.427402,-5.978825 6.779984,-10.642306 12.477801,-13.936637 4.47814,-2.58883 9.1476,-2.714385 13.912717,-1.195765 5.02819,1.578409 7.43765,5.470623 7.54527,10.415108 0.18534,8.077384 -0.33481,16.172714 -0.22719,24.256084 0.13153,9.9368 0.55603,19.86762 0.9865,29.79247 a 12.418013,12.418013 0 0 0 1.30338,5.02819 c 0.97455,1.90126 0.55603,3.38401 -1.03433,4.18517 -3.37804,1.66211 -6.82184,3.47968 -10.45098,4.29877 -3.724807,0.84302 -7.078927,-1.63819 -8.137177,-6.01469 -1.27349,-5.26734 -2.48121,-10.76188 -2.39153,-16.10097 0.16143,-10.03246 1.411,-20.04699 1.9192,-30.08543 a 103.23632,103.23632 0 0 0 -0.28698,-15.323721 c -0.32883,-3.360098 -2.87581,-4.597714 -5.6739,-2.744279 a 20.872068,20.872068 0 0 0 -6.158186,6.510937 c -4.46618,7.449613 -5.871204,15.933563 -7.21046,24.345763 -1.841477,11.53913 -3.318246,23.13206 -5.17766,34.67717 -1.124018,6.94739 -5.572262,10.76188 -12.651187,11.60489 -3.587293,0.43646 -6.606598,-0.69354 -7.844214,-3.97592 -1.632219,-4.33464 -3.467717,-8.96823 -3.539463,-13.45832 -0.20328,-13.5241 0.227195,-27.07211 0.771268,-40.5962 0.40656,-10.164 1.411002,-20.27419 2.074651,-30.4142719 0.113598,-1.692007 -0.173385,-3.336183 -0.328835,-5.853267 z"
     id="path14"
     style="stroke-width:0.597882" />
  <path
     class="cls-2"
     d="m 628.85296,31.931019 a 8.3703508,8.3703508 0 0 1 -8.17305,8.43014 8.5616731,8.5616731 0 1 1 8.17305,-8.45405 z"
     id="path16"
     style="stroke-width:0.597882" />
  <path
     class="cls-2"
     d="m 400.58154,40.403009 a 8.8127836,8.8127836 0 0 1 -8.70517,-8.75299 8.5736307,8.5736307 0 1 1 17.13531,0.59788 8.3045837,8.3045837 0 0 1 -8.43014,8.15511 z"
     id="path18"
     style="stroke-width:0.597882" />
</svg>
