<?xml version="1.0" encoding="UTF-8" standalone="no"?>
<svg
   xmlns:dc="http://purl.org/dc/elements/1.1/"
   xmlns:cc="http://creativecommons.org/ns#"
   xmlns:rdf="http://www.w3.org/1999/02/22-rdf-syntax-ns#"
   xmlns:svg="http://www.w3.org/2000/svg"
   xmlns="http://www.w3.org/2000/svg"
   xmlns:sodipodi="http://sodipodi.sourceforge.net/DTD/sodipodi-0.dtd"
   xmlns:inkscape="http://www.inkscape.org/namespaces/inkscape"
   id="Camada_1"
   data-name="Camada 1"
   viewBox="0 0 366.93169 126.5738"
   version="1.1"
   sodipodi:docname="svg2.svg"
   width="366.93167"
   height="126.5738"
   inkscape:version="1.0.2-2 (e86c870879, 2021-01-15)">
  <metadata
     id="metadata24">
    <rdf:RDF>
      <cc:Work
         rdf:about="">
        <dc:format>image/svg+xml</dc:format>
        <dc:type
           rdf:resource="http://purl.org/dc/dcmitype/StillImage" />
        <dc:title></dc:title>
      </cc:Work>
    </rdf:RDF>
  </metadata>
  <sodipodi:namedview
     pagecolor="#ffffff"
     bordercolor="#666666"
     borderopacity="1"
     objecttolerance="10"
     gridtolerance="10"
     guidetolerance="10"
     inkscape:pageopacity="0"
     inkscape:pageshadow="2"
     inkscape:window-width="1366"
     inkscape:window-height="705"
     id="namedview22"
     showgrid="false"
     fit-margin-top="0"
     fit-margin-left="0"
     fit-margin-right="0"
     fit-margin-bottom="0"
     inkscape:zoom="1.8213316"
     inkscape:cx="219.33296"
     inkscape:cy="75.28464"
     inkscape:window-x="-8"
     inkscape:window-y="-8"
     inkscape:window-maximized="1"
     inkscape:current-layer="Camada_1" />
  <defs
     id="defs9">
    <style
       id="style2">.cls-1{fill:url(#Gradiente_sem_nome_5);}.cls-2{fill:#862633;}</style>
    <linearGradient
       id="Gradiente_sem_nome_5"
       x1="12"
       y1="220.83"
       x2="957.34998"
       y2="220.83"
       gradientUnits="userSpaceOnUse">
      <stop
         offset="0"
         stop-color="#e8a0a1"
         id="stop4" />
      <stop
         offset="1"
         stop-color="#f5e5d5"
         id="stop6" />
    </linearGradient>
  </defs>
  <path
     class="cls-2"
     d="m 183.9689,105.04779 c -2.52417,4.8142 -4.78646,9.47759 -7.34221,13.8597 -2.45476,4.20275 -5.75197,6.96246 -9.91686,7.58208 -3.85885,0.57884 -6.62599,-1.84661 -7.6672,-6.63636 -1.78902,-8.10386 -0.75095,-16.18732 0.082,-24.278942 0.56794,-5.51534 1.09172,-11.042918 1.6281,-16.50935 -2.9817,-0.64406 -5.67942,-0.945719 -8.22253,-1.838444 -4.36682,-1.528645 -5.91605,-4.969112 -5.32602,-10.790184 0.183,-1.793604 0.19248,-3.611671 0.31552,-5.906679 2.28755,-1.222912 4.90639,-2.091192 7.67983,-1.182151 2.49894,0.815276 3.42025,3.395624 3.72001,6.412151 0.44173,4.484023 0.70677,4.834595 4.18699,5.062864 0.47329,0.03254 0.94656,0.02853 1.41985,0.05703 7.02038,0.456547 10.61419,5.984125 9.82538,14.992931 q -0.9939,11.389412 -1.84265,22.799204 a 17.984788,23.235381 0 0 0 0.15769,5.18109 c 0.24611,2.40506 1.39776,3.15511 2.71982,1.45526 a 36.49019,47.143367 0 0 0 4.64447,-7.62691 c 1.77325,-3.48122 2.06667,-7.26818 2.01304,-11.572845 -0.10417,-8.107929 0.70993,-16.248465 1.2968,-24.356392 0.36917,-5.128093 0.49536,-5.111777 4.54036,-4.810128 5.43331,0.407637 7.57255,3.623906 7.25703,10.643436 -0.26818,5.869986 -0.64997,11.75629 -0.55215,17.626276 0.0663,4.190528 1.85211,5.213693 4.58138,2.8127 3.12368,-2.755636 5.73935,-5.759915 5.88135,-11.576919 0.1956,-8.087542 6.94147,-15.233447 14.1985,-15.963119 1.89314,-0.1875 3.78627,-0.0285 5.95708,-0.0285 v -6.758642 c 7.05194,-3.562757 13.80096,2.111567 13.84512,11.454629 0.0222,5.299299 -0.34707,10.598606 -0.3944,15.897903 a 26.131583,33.760602 0 0 0 0.53955,6.664887 c 0.42911,2.930914 2.19287,3.868484 3.74839,1.805836 4.79281,-6.338783 8.49073,-13.586581 10.28288,-22.277432 0.1988,-0.953885 0.45436,-2.038186 0.96551,-2.702642 3.78626,-4.89166 7.3359,-10.190957 11.5229,-14.422244 6.57863,-6.673039 14.43514,-7.537238 22.53146,-6.522207 9.31739,1.173987 17.50205,6.6445 25.93282,11.165199 7.32643,3.925567 14.68756,7.451637 22.77126,7.488327 14.62445,0.06933 25.95803,-15.449492 25.0493,-34.270157 C 361.31147,23.711701 356.86574,12.346745 346.55761,5.9957406 340.49326,2.2577072 334.12603,2.6734963 327.90709,5.7552369 a 10.727769,13.859701 0 0 0 -3.31616,2.9105374 c -2.76715,3.3467127 -2.12663,7.5087007 0.69733,9.2982327 2.94696,1.871064 3.69159,5.262606 2.28438,8.018243 -1.4672,2.853462 -4.3353,3.42008 -6.9415,1.3289 -3.53388,-2.853461 -4.82435,-9.608032 -2.7703,-15.001084 1.83947,-4.8386652 4.99157,-7.8348173 8.79045,-9.6977169 17.03823,-8.3606651 35.21859,4.076385 39.48766,26.9041219 3.74208,20.039492 -6.09907,39.903711 -22.46203,45.117404 -9.78121,3.110282 -19.33524,1.271838 -28.61162,-2.979836 -7.05824,-3.236653 -13.91455,-7.202969 -20.86237,-10.826862 -8.07735,-4.21091 -16.24309,-5.706946 -24.22582,0 -6.48082,4.622608 -11.60807,11.152969 -14.78854,19.974265 -3.18046,8.821296 -6.17793,17.809715 -12.30537,23.985428 a 29.974646,38.725635 0 0 1 -8.15943,5.96376 c -5.63207,2.6048 -9.87901,-0.94164 -10.8445,-8.61747 -0.40071,-3.199967 -0.47013,-6.469218 -0.71624,-10.105358 -5.02943,4.960957 -10.3239,7.977488 -15.26815,4.027461 -2.80814,2.894233 -5.25661,5.829227 -8.01426,8.152767 -2.40113,2.00966 -5.04837,3.88071 -7.78395,4.79383 -3.15206,1.04762 -6.29152,0.0897 -8.12786,-3.9541 z m 40.46579,-28.685505 c -2.07929,0.554388 -4.15228,0.904948 -6.12745,1.675392 -2.60622,1.015018 -4.00399,4.076374 -3.72632,7.557612 0.20193,2.576283 1.26208,3.583147 3.22464,3.098046 4.19645,-1.031319 7.02669,-5.988208 6.62913,-12.33105 z"
     id="path13"
     style="stroke-width:0.358637" />
  <path
     class="cls-2"
     d="m 148.79761,76.504953 c 1.57761,0.509556 1.72591,1.430819 0.99074,3.114362 -5.04837,11.528009 -11.69327,21.091215 -20.74246,27.421815 -2.67878,1.87515 -5.91605,2.87386 -8.97661,3.2815 -5.13671,0.68075 -9.06497,-4.69192 -9.46568,-12.09463 -0.0537,-1.072093 -0.0789,-2.144186 -0.12622,-3.383402 -2.805,3.391554 -5.30394,6.774962 -8.10262,9.677332 a 32.091804,41.460889 0 0 1 -6.654373,5.16478 c -3.221486,1.9159 -5.707797,0.61145 -7.234936,-3.50976 a 23.585314,30.470962 0 0 1 -1.542898,-5.75993 c -0.378629,-1.960739 -0.511148,-3.994854 -0.842448,-6.77496 -0.817202,1.483813 -1.36621,2.502912 -1.930995,3.501612 -3.656914,6.448838 -7.821813,12.082408 -14.151188,13.986078 -5.619461,1.6917 -9.150163,-1.07209 -10.279733,-8.34028 -0.53954,-3.460851 -0.507986,-7.068438 -0.747789,-10.855411 -0.946559,0.896808 -1.893136,1.854762 -2.899657,2.751568 -3.319297,3.00021 -6.960416,3.778808 -10.809793,2.217556 -3.726328,-1.508268 -5.568971,-5.87 -4.754933,-10.822804 1.385151,-8.425881 7.275959,-14.891026 14.384682,-15.632934 1.949925,-0.199732 3.925098,-0.02853 6.133757,-0.02853 V 63.48906 c 7.730306,-3.420082 14.346811,3.208118 13.841979,13.284933 a 134.50729,173.77621 0 0 0 -0.170388,17.426546 c 0.05994,2.038188 1.075933,4.035613 1.656494,6.053431 1.394612,-1.104719 2.823928,-2.148263 4.171208,-3.34265 0.501688,-0.444314 0.814048,-1.222912 1.217923,-1.862899 2.804996,-4.357661 4.079702,-8.968044 3.953498,-15.021469 -0.381784,-18.152137 0.315522,-36.279817 2.596746,-54.272971 0.672069,-5.299283 2.603066,-6.705646 6.566023,-4.806044 6.193721,2.975754 9.134391,9.567272 10.459581,17.312394 1.84265,10.733107 0.74779,20.891455 -4.87483,29.720902 a 3.2972113,4.2598201 0 0 0 -0.684677,2.482516 c -0.06629,7.541308 -0.141983,15.082614 -0.03788,22.623923 0.0536,3.892948 1.148497,4.622618 3.707387,2.551825 3.98506,-3.228501 7.39269,-7.12552 9.36787,-12.946593 3.11737,-9.192245 10.55424,-14.267344 18.18673,-12.787612 4.80856,0.929415 7.29173,6.819788 5.33549,12.604173 -1.95625,5.784383 -5.51849,8.49926 -10.21032,8.837602 -1.82687,0.126362 -2.39796,0.990558 -2.18341,3.134734 0.14198,1.406351 0.15145,2.853462 0.46066,4.206829 0.50168,2.16863 1.82372,3.30187 3.47074,2.53958 1.97202,-0.91311 4.18384,-1.842529 5.62262,-3.66875 4.89692,-6.171635 9.5067,-12.726451 14.19852,-19.158989 a 13.504368,17.446919 0 0 0 1.10116,-1.89552 z M 59.889641,76.227759 c -2.347484,0.815276 -4.590849,1.3289 -6.657517,2.400996 -2.186576,1.137309 -3.076353,3.742113 -3.060576,6.681191 0,2.184934 0.76041,3.668735 2.773443,3.464921 4.246937,-0.440256 7.723991,-6.143108 6.94465,-12.547108 z m 64.344529,11.36904 c 4.13966,1.031307 7.01407,-0.538094 8.415,-4.076384 1.00966,-2.564048 0.8172,-5.409368 -0.58373,-6.330631 -1.89314,-1.247368 -3.73579,-0.489157 -4.74861,1.663168 -1.25578,2.657801 -2.03828,5.702853 -3.08266,8.743847 z M 101.08743,38.655747 q -0.50799,11.067364 -1.00967,22.134752 c 3.8967,-7.194815 3.87146,-14.621982 1.00967,-22.134752 z"
     id="path15"
     style="stroke-width:0.358637" />
  <path
     class="cls-2"
     d="m 31.568339,55.951835 c -2.552582,-1.153625 -3.17732,-2.5029 -2.80815,-5.034338 0.280814,-1.932198 0.08835,-4.076384 -0.249264,-6.037121 -0.662599,-3.819567 -3.234108,-5.168854 -5.524802,-2.604807 -1.722757,1.928128 -3.45182,4.484021 -4.133348,7.194818 a 91.447921,118.1458 0 0 0 -3.625352,19.23237 c -1.003366,8.76015 -1.508199,17.662966 0.205087,26.431268 a 16.375624,21.156426 0 0 0 2.044586,6.114575 c 1.807945,3.66874 4.464645,4.05193 6.288367,0.42802 a 21.654316,27.976214 0 0 0 3.215179,-10.900257 c 0.479596,-4.25574 0,-8.715293 -0.25558,-13.068872 -0.0915,-1.597954 0.145147,-2.409144 1.337821,-2.983919 4.433093,-2.136022 8.437074,-0.06517 9.882167,5.776233 0.899238,3.640209 1.296796,7.553541 1.549213,11.38126 0.476441,7.154059 -0.694152,14.516005 1.697518,21.437705 0.123051,0.35464 -0.148294,1.24737 -0.435427,1.47973 -1.795324,1.4838 -3.549631,3.11435 -5.499558,4.1253 -2.767137,1.42265 -5.837174,-0.32205 -6.663835,-4.07639 -0.760412,-3.45677 -0.791964,-7.19074 -1.06332,-10.81057 -0.09464,-1.2433 0.06317,-2.52327 0.135689,-4.630769 -1.189525,3.061369 -1.959396,5.388979 -2.956447,7.537239 -3.868313,8.36066 -10.66783,9.53873 -16.1547636,2.82085 C 3.9380236,104.11022 1.5747533,96.907252 0.70076135,88.97461 -1.1387373,72.310359 0.61875175,56.237178 6.2634248,40.991511 8.7371222,34.306237 12.60543,29.337128 17.937761,26.471431 c 7.824967,-4.202744 14.274246,0.444327 14.82956,11.324198 0.299747,5.845531 -0.738317,11.821507 -1.198982,18.156206 z"
     id="path17"
     style="stroke-width:0.358637" />
  <path
     class="cls-2"
     d="m 196.80437,53.098361 c -0.17985,4.31689 -3.28143,7.838889 -6.72378,7.635076 -3.61274,-0.216051 -6.55657,-4.304668 -6.37987,-8.857989 a 6.458748,8.3443556 0 0 1 6.97305,-7.928571 c 3.50861,0.285359 6.33253,4.500327 6.1306,9.151484 z"
     id="path19"
     style="stroke-width:0.358637" />
</svg>
