<?xml version="1.0" encoding="UTF-8" standalone="no"?>
<svg
   xmlns:dc="http://purl.org/dc/elements/1.1/"
   xmlns:cc="http://creativecommons.org/ns#"
   xmlns:rdf="http://www.w3.org/1999/02/22-rdf-syntax-ns#"
   xmlns:svg="http://www.w3.org/2000/svg"
   xmlns="http://www.w3.org/2000/svg"
   xmlns:sodipodi="http://sodipodi.sourceforge.net/DTD/sodipodi-0.dtd"
   xmlns:inkscape="http://www.inkscape.org/namespaces/inkscape"
   id="Camada_1"
   data-name="Camada 1"
   viewBox="0 0 619.24738 119.66267"
   version="1.1"
   sodipodi:docname="svg3.svg"
   width="619.24738"
   height="119.66267"
   inkscape:version="1.0.2-2 (e86c870879, 2021-01-15)">
  <metadata
     id="metadata15">
    <rdf:RDF>
      <cc:Work
         rdf:about="">
        <dc:format>image/svg+xml</dc:format>
        <dc:type
           rdf:resource="http://purl.org/dc/dcmitype/StillImage" />
        <dc:title />
      </cc:Work>
    </rdf:RDF>
  </metadata>
  <sodipodi:namedview
     pagecolor="#ffffff"
     bordercolor="#666666"
     borderopacity="1"
     objecttolerance="10"
     gridtolerance="10"
     guidetolerance="10"
     inkscape:pageopacity="0"
     inkscape:pageshadow="2"
     inkscape:window-width="1366"
     inkscape:window-height="705"
     id="namedview13"
     showgrid="false"
     inkscape:zoom="0.91066581"
     inkscape:cx="551.82088"
     inkscape:cy="242.80421"
     inkscape:window-x="-8"
     inkscape:window-y="-8"
     inkscape:window-maximized="1"
     inkscape:current-layer="Camada_1"
     inkscape:document-rotation="0" />
  <defs
     id="defs4">
    <style
       id="style2">.cls-1{fill:#862633;}</style>
  </defs>
  <path
     class="cls-1"
     d="m 364.55627,87.990905 c -3.69427,5.198358 -7.06661,10.222568 -10.7556,14.993445 -5.27752,6.8608 -11.61055,12.49192 -20.37127,14.62404 -8.38071,2.03712 -12.84022,-0.3536 -15.14122,-8.60766 -2.85513,-10.233119 -3.6151,-20.772342 -3.43566,-31.337957 0.20581,-11.948319 0.75468,-23.891366 1.1505,-35.839688 a 12.987996,12.987996 0 0 0 -0.12668,-1.403822 h -8.68154 c -2.11101,0 -4.22202,0 -6.33302,0 -3.69428,0 -3.69428,-0.02639 -3.34067,-4.327573 l 19.14686,-2.675707 c 0.35887,-10.76088 0.72302,-21.516481 1.09245,-32.53068296 5.36724,-1.05550602 10.7556,-0.69663357 15.72176,2.34849976 4.01619,2.4646055 5.72611,6.4227516 5.9636,10.8928182 0.20054,3.847318 -0.20055,7.721023 -0.30083,11.610561 -0.0422,1.746863 0,3.488446 0,5.625846 3.4304,0 6.82386,0 10.21203,0 1.22967,0 2.45932,-0.0686 3.69427,-0.07389 3.62565,0 3.62565,0 3.75232,4.369792 l -18.18636,2.75487 c -0.2111,4.322295 -0.58581,8.60237 -0.6122,12.887724 -0.0845,12.750506 -0.15305,25.501023 0.0422,38.246245 a 46.347251,46.347251 0 0 0 1.64658,10.898094 c 0.99746,3.82621 3.64151,4.66006 6.79218,2.24823 a 26.213482,26.213482 0 0 0 5.71556,-5.768335 c 4.12177,-6.005828 8.15907,-12.096099 11.77418,-18.418569 1.75214,-3.060968 2.31684,-6.776352 3.69426,-10.080085 A 29.095012,29.095012 0 0 1 379.43361,54.58943 c 10.61838,-6.533589 22.34506,-2.944861 27.34288,8.47571 1.28243,2.939579 1.94212,6.148312 2.95542,9.467882 6.30135,-1.161059 12.59218,-2.43294 18.28663,-6.253876 6.54412,-4.385618 13.24659,-8.723748 20.38181,-11.979981 12.90883,-5.884452 26.07099,-4.269523 38.96399,0.654408 9.11957,3.483173 17.14141,8.813473 24.75688,14.861517 8.18544,6.507195 16.32867,13.098833 24.83605,19.173267 7.9849,5.694445 16.73505,9.92175 26.66735,11.304463 22.06535,3.06624 41.69247,-10.750324 46.08865,-32.625677 2.78126,-13.816576 1.58325,-27.031506 -6.90828,-38.768728 -9.20929,-12.708287 -21.85425,-17.727217 -37.29101,-15.420936 -2.48573,0.374703 -5.00309,1.68353 -7.10883,3.134851 -3.07152,2.111011 -3.92648,7.029667 -0.52776,9.816201 a 14.856242,14.856242 0 0 1 1.65187,1.704642 c 2.35378,2.638764 2.63877,5.662789 0.88135,8.475711 a 6.976892,6.976892 0 0 1 -8.32795,2.802366 c -4.33812,-1.530482 -6.59164,-4.860602 -7.24077,-9.246229 -1.0555,-7.114107 1.483,-12.750507 7.38855,-16.851146 6.86078,-4.7497753 14.71902,-5.7736158 22.69336,-4.9028235 21.50066,2.3432215 35.75525,14.4551485 42.07774,34.6575265 8.86624,28.308667 -9.56288,55.772922 -36.94271,61.113782 -16.65586,3.24567 -31.7971,-1.34049 -46.29446,-9.209294 -10.81366,-5.868602 -20.14433,-13.77962 -29.81803,-21.236771 -5.077,-3.910651 -10.06425,-7.995452 -15.44734,-11.452234 -15.39453,-9.884805 -31.01603,-9.367611 -46.44224,0 -3.86316,2.348496 -7.01383,5.91083 -10.96142,8.058787 -6.59692,3.599269 -13.59492,6.459697 -20.36071,9.752874 a 4.5017313,4.5017313 0 0 0 -2.11101,2.496264 c -2.57543,8.70265 -6.88717,16.128127 -14.80875,21.052054 -10.99836,6.82913 -24.38217,1.65187 -27.97089,-10.834756 -0.43275,-1.54632 -0.81802,-3.055686 -1.28771,-4.818379 z M 403.8158,81.30955 a 24.909932,24.909932 0 0 1 -16.46061,-4.290631 c -2.49628,5.900276 -3.7787,11.557786 -2.11101,17.526669 1.55159,5.641682 5.99001,6.976892 10.39673,3.166517 4.85006,-4.26424 6.95578,-9.911196 8.17489,-16.402555 z m 0,-8.544317 c -0.52775,-3.008196 -1.54104,-5.414744 -4.39619,-6.274984 -2.14794,-0.654408 -4.03203,0.179442 -5.61001,1.889355 2.51212,3.319569 5.87391,4.18508 10.00093,4.390901 z"
     id="path6"
     style="stroke-width:0.527754" />
  <path
     class="cls-1"
     d="M 47.186846,47.533371 C 43.809235,46.330095 43.207588,44.113532 43.49258,41.010346 a 58.643891,58.643891 0 0 0 -0.163605,-9.953419 c -0.08973,-1.250774 -0.754687,-2.533214 -1.414377,-3.646771 -1.519929,-2.570155 -4.749773,-3.340676 -6.707735,-1.192721 -2.206009,2.385442 -4.353965,5.150867 -5.504469,8.143226 -3.245679,8.444044 -4.311738,17.373623 -5.082252,26.319028 -0.83385,9.636769 -1.778531,19.3052 -0.168887,28.936685 a 36.837145,36.837145 0 0 0 2.797092,9.283179 c 2.079349,4.501727 6.079716,5.583617 10.312294,2.992357 7.441314,-4.54923 12.703008,-11.278082 17.584721,-18.313025 0.45387,-0.654408 0.443316,-1.667698 0.527749,-2.522655 1.055506,-9.705375 4.49118,-18.144141 12.259702,-24.514122 11.995818,-9.832031 27.057885,-5.240586 31.380179,9.668431 0.55942,1.931582 0.897188,3.926487 1.498818,6.612746 4.09008,-1.118841 8.18017,-2.174347 12.21219,-3.414566 0.48026,-0.147763 0.86024,-1.277153 0.92885,-1.984341 0.5647,-5.731399 1.05551,-11.473353 1.58326,-17.600558 10.13286,-4.945047 19.32631,4.258959 19.91211,21.416201 1.48827,-2.00546 2.63877,-3.820925 4.04787,-5.388353 1.69937,-1.873518 3.43567,-3.820927 5.50974,-5.214195 3.4515,-2.327388 6.86078,-0.907739 7.45186,3.166517 a 55.03934,55.03934 0 0 1 0.3325,10.470618 c -0.24278,5.082253 -0.88136,10.143408 -1.23495,15.225661 -0.0792,1.13995 0.32721,2.316843 0.52775,3.562333 3.31956,-0.43276 5.16142,-2.501545 6.51775,-4.654774 3.63621,-5.805287 6.9505,-11.789997 10.38616,-17.71139 0.56471,-0.976335 1.09774,-1.973789 1.74688,-3.140128 l 2.79182,1.145221 c -1.10302,2.184901 -2.04242,4.222025 -3.14014,6.190541 -3.10318,5.50974 -6.09554,11.082817 -9.49954,16.413119 a 17.547781,17.547781 0 0 1 -5.49392,5.161424 c -2.97125,1.847127 -6.21164,0.628017 -6.69718,-2.775985 -0.66497,-4.64422 -0.52775,-9.41511 -0.52775,-14.13322 0,-3.425121 0.4222,-6.860785 0.52775,-10.270067 a 19.078263,19.078263 0 0 0 -0.42747,-3.240408 l -0.92358,-0.443305 c -0.99217,1.282435 -2.34849,2.422385 -2.91847,3.868424 q -3.98453,10.169799 -7.5627,20.487366 c -1.2666,3.646767 -1.94741,7.499365 -3.26679,11.11975 -2.32738,6.37526 -7.26715,9.29373 -13.52103,8.39654 -2.91847,-0.41692 -5.27752,-1.82602 -6.36997,-4.507 -1.09245,-2.68099 -2.05824,-5.5203 -2.11101,-8.317382 -0.12666,-5.340866 0.4222,-10.70283 0.70719,-16.054249 0.0739,-1.387986 0.21638,-2.775973 0.35359,-4.470061 -4.12703,1.488266 -7.99017,2.802365 -11.76889,4.332847 -0.56469,0.22694 -0.85496,1.409106 -1.055504,2.20601 -2.353769,8.618207 -6.755233,15.8062 -14.402368,20.714295 -10.940322,7.02439 -24.345235,2.11101 -28.213669,-10.275341 -0.232213,-0.744132 -0.453869,-1.49882 -0.759961,-2.51211 -3.04513,3.873707 -5.831669,7.652416 -8.866244,11.225301 -4.507016,5.30391 -9.304288,10.31229 -15.34706,13.95907 C 19.173735,123.66699 7.8217671,119.32887 3.3042024,104.69428 -0.13146779,93.611469 -0.30034936,82.169789 0.22212658,70.728109 0.85015211,57.075138 2.8608906,43.638554 7.6106658,30.713888 10.624134,22.480945 14.77227,15.034353 22.076368,9.7990446 25.91313,7.0441758 30.061266,4.9437189 34.94298,5.0492694 42.278751,5.1759295 47.672378,10.548454 49.192306,19.166657 50.712235,27.78486 49.392855,36.15502 47.851818,44.5674 c -0.163605,0.944677 -0.411652,1.862967 -0.664972,2.965971 z m 31.432959,29.316672 c -2.395994,6.428023 -3.963422,12.449688 -1.731032,18.787995 1.482984,4.222024 5.193087,5.483352 8.813474,2.923753 5.805278,-4.111201 8.090448,-10.201461 9.341222,-17.136134 -5.93722,0.137214 -11.304466,-0.818023 -16.423664,-4.56506 z m 16.613658,-4.153418 c -0.733579,-3.166517 -1.836584,-5.530849 -4.749772,-6.274983 -2.052959,-0.527748 -3.884261,0.269156 -5.446416,1.984353 2.665161,3.182344 5.974165,4.285348 10.196188,4.301185 z"
     id="path8"
     style="stroke-width:0.527754" />
  <path
     class="cls-1"
     d="m 230.37512,66.611637 c 1.6202,1.704642 2.82875,1.097724 4.30647,0.110826 6.39109,-4.253685 13.47353,-5.805278 21.1101,-4.92393 0.69136,0.07918 1.38799,0.126665 2.35907,0.216376 v -9.103738 c 11.14612,-2.73903 22.42949,1.583264 22.29228,14.924851 -0.0739,6.860786 -0.49082,13.721579 -0.52776,20.582364 a 37.438783,37.438783 0 0 0 1.01856,8.343768 c 0.9394,4.121756 3.43039,4.981986 6.33304,1.8788 3.50955,-3.778709 6.94521,-7.800183 9.49954,-12.249137 3.33013,-5.805289 5.95306,-12.10138 8.48099,-18.34469 1.15579,-2.865701 3.01874,-1.461877 5.02948,-1.820749 -0.52774,1.583255 -0.83912,2.929025 -1.35632,4.222025 -4.71282,11.610556 -9.76342,23.010018 -18.66133,32.155977 -4.97143,5.11392 -10.55506,9.32539 -17.76417,10.76088 -9.55232,1.88935 -15.03039,-1.25606 -16.77198,-11.91139 -0.6808,-4.222011 -0.52775,-8.53376 -0.73358,-12.908824 -1.93685,1.414377 -3.83148,2.929024 -5.85278,4.222023 a 20.313205,20.313205 0 0 1 -12.51302,3.425111 c -5.5889,-0.348318 -10.06952,-2.490992 -11.67389,-8.290999 -3.93176,5.430582 -7.68935,10.924487 -11.76361,16.180909 -4.36979,5.6364 -9.64203,10.33867 -16.53976,12.63967 -11.61057,3.87371 -16.29174,0.74413 -18.66135,-9.78981 a 127.67923,127.67923 0 0 1 -2.79181,-33.248424 c 0.44858,-11.051147 0.65442,-22.112846 0.96579,-33.248431 -4.99782,0 -9.99037,0 -14.97762,0 -3.69429,0 -3.69429,0 -3.49901,-4.33285 5.02421,-0.686079 10.12229,-1.461876 15.23623,-2.063514 3.91593,-0.459145 3.92121,-0.364149 4.07424,-4.369793 0.35888,-9.499551 0.72302,-18.946325 1.09245,-28.593647 11.31503,-4.1428598 22.58782,4.1745245 21.8173,16.560882 -0.2797,4.448957 -0.50135,8.908468 -0.76523,13.684631 h 10.95086 c 1.58327,0 3.16652,0.03166 4.74978,-0.06334 1.44076,-0.08444 2.07935,0.464423 2.11101,1.936854 0.0317,1.472429 0.0422,2.58071 -1.80492,2.818199 -4.00563,0.527752 -8.00073,1.12939 -12.0011,1.715197 -1.3827,0.200546 -2.76014,0.422201 -4.38034,0.670245 -0.22166,5.087537 -0.6333,10.074801 -0.62274,15.06735 q 0.0527,20.302642 0.44858,40.610577 a 22.023124,22.023124 0 0 0 1.40383,6.670794 c 1.2191,3.50956 3.5676,4.32757 6.50718,2.03713 2.39601,-1.86298 4.77617,-4.037312 6.38581,-6.565248 5.27754,-8.290999 10.21202,-16.798373 15.2415,-25.237139 0.79164,-1.282445 1.38272,-2.654596 2.24823,-4.369792 z m 27.21093,2.73903 c -5.01364,0.04227 -9.14595,0.733579 -12.90882,2.723213 a 9.1934538,9.1934538 0 0 0 -4.74979,9.995629 c 0.52777,2.702097 2.29572,4.026758 4.92922,3.361786 a 18.803833,18.803833 0 0 0 10.84532,-7.457139 c 1.47243,-2.116294 1.26133,-5.420027 1.88407,-8.623489 z"
     id="path10"
     style="stroke-width:0.527754" />
</svg>
